<?xml version="1.0" encoding="UTF-8" standalone="no"?>
<svg
   height="1024"
   width="1024"
   version="1.1"
   id="svg8"
   sodipodi:docname="icon_color.svg"
   inkscape:export-filename="animated head\godot_head_15.png"
   inkscape:export-xdpi="46.875"
   inkscape:export-ydpi="46.875"
   xmlns:inkscape="http://www.inkscape.org/namespaces/inkscape"
   xmlns:sodipodi="http://sodipodi.sourceforge.net/DTD/sodipodi-0.dtd"
   xmlns="http://www.w3.org/2000/svg"
   xmlns:svg="http://www.w3.org/2000/svg">
  <defs
     id="defs8" />
  <sodipodi:namedview
     id="namedview8"
     pagecolor="#ffffff"
     bordercolor="#000000"
     borderopacity="0.25"
     inkscape:showpageshadow="2"
     inkscape:pageopacity="0.0"
     inkscape:pagecheckerboard="0"
     inkscape:deskcolor="#d1d1d1" />
  <g
     id="g8"
     transform="translate(0,56)">
    <path
       d="m 0,0 -1.121,-16.063 c -0.135,-1.936 -1.675,-3.477 -3.611,-3.616 l -38.555,-2.751 c -0.094,-0.007 -0.188,-0.01 -0.281,-0.01 -1.916,0 -3.569,1.406 -3.852,3.33 l -2.211,14.994 H -81.09 l -2.211,-14.994 c -0.297,-2.018 -2.101,-3.469 -4.133,-3.32 l -38.555,2.751 c -1.936,0.139 -3.476,1.68 -3.611,3.616 L -130.721,0 -163.268,3.138 c 0.015,-3.498 0.06,-7.33 0.06,-8.093 0,-34.374 43.605,-50.896 97.781,-51.086 h 0.066 0.067 c 54.176,0.19 97.766,16.712 97.766,51.086 0,0.777 0.047,4.593 0.063,8.093 z"
       fill="#478cbf"
       id="path3"
       transform="matrix(4.162611,0,0,-4.162611,784.07144,718.72312)"
       inkscape:label="jaw" />
    <path
       d="m 0.11232851,-4.2684835 c 0,0 -0.15650722,-0.8703772 -0.009522,-0.045913 L -32.877831,-7.7492325 c -2.879,-0.278 -2.980758,-0.383594 -3.182758,-3.2685945 l -1.443314,-15.763435 -38.101566,-2.839464 -2.577971,15.383228 c -1.322628,2.872 -2.033848,3.067647 -4.936372,3.015087 l -31.456268,-0.569626 c -2.90153,-0.05254 -2.83609,-0.133446 -3.26009,-3.005451 l -2.6913,-13.43042 -37.74696,2.738424 -1.10632,15.370286 c -0.202,2.8859996 -2.10102,3.1600863 -4.98002,3.4380863 l -31.51028,3.0266449 c -0.187,0.018 0.12531,0.015831 -0.0617,0.015831 L -195.729,-7.832 l 30.658,-4.944 1.004,-14.374 c 0.203,-2.91 2.551,-5.263 5.463,-5.472 l 38.551,-2.75 c 0.146,-0.01 0.29,-0.016 0.434,-0.016 2.897,0 5.401,2.166 5.825,5.038 l 1.959,13.286 h 28.005 l 1.959,-13.286 c 0.423,-2.871 2.93,-5.037 5.831,-5.037 0.142,0 0.284,0.005 0.423,0.015 l 38.556,2.75 c 2.911,0.209 5.26,2.562 5.463,5.472 l 1.003,14.374 30.645,4.966 z"
       fill="#fff"
       id="path1"
       transform="matrix(4.162611,0,0,-4.162611,919.24059,673.15214)"
       style="fill:#ffffff;fill-opacity:1"
       sodipodi:nodetypes="cccccccssccccccccccccsccccscccccc"
       inkscape:label="lower" />
  </g>
  <g
     id="g9"
     transform="translate(0,-54)">
    <path
       d="m 0,0 v -47.514 -6.035 -5.492 c 0.108,-0.001 0.216,-0.005 0.323,-0.015 l 36.196,-3.49 c 1.896,-0.183 3.382,-1.709 3.514,-3.609 l 1.116,-15.978 31.574,-2.253 2.175,14.747 c 0.282,1.912 1.922,3.329 3.856,3.329 h 38.188 c 1.933,0 3.573,-1.417 3.855,-3.329 l 2.175,-14.747 31.575,2.253 1.115,15.978 c 0.133,1.9 1.618,3.425 3.514,3.609 l 36.182,3.49 c 0.107,0.01 0.214,0.014 0.322,0.015 v 4.711 l 0.015,0.005 V 0 c 5.09692,6.4164715 9.92323,13.494208 13.621,19.449 -5.651,9.62 -12.575,18.217 -19.976,26.182 -6.864,-3.455 -13.531,-7.369 -19.828,-11.534 -3.151,3.132 -6.7,5.694 -10.186,8.372 -3.425,2.751 -7.285,4.768 -10.946,7.118 1.09,8.117 1.629,16.108 1.846,24.448 -9.446,4.754 -19.519,7.906 -29.708,10.17 -4.068,-6.837 -7.788,-14.241 -11.028,-21.479 -3.842,0.642 -7.702,0.88 -11.567,0.926 v 0.006 c -0.027,0 -0.052,-0.006 -0.075,-0.006 -0.024,0 -0.049,0.006 -0.073,0.006 V 63.652 C 93.903,63.606 90.046,63.368 86.203,62.726 82.965,69.964 79.247,77.368 75.173,84.205 64.989,81.941 54.915,78.789 45.47,74.035 45.686,65.695 46.225,57.704 47.318,49.587 43.65,47.237 39.795,45.22 36.369,42.469 32.888,39.791 29.333,37.229 26.181,34.097 19.884,38.262 13.219,42.176 6.353,45.631 -1.048,37.666 -7.968,29.069 -13.621,19.449 -9.1783421,12.475308 -4.4130298,5.4661124 0,0 Z"
       fill="#478cbf"
       transform="matrix(4.162611,0,0,-4.162611,104.69892,427.38725)"
       id="path2"
       inkscape:label="head" />
    <path
       d="m 919.53135,677.65441 c 0,0 -0.1956,-6.77109 -0.32524,-8.6386 l -153.91789,14.44902 c -11.9842,1.1572 -21.2918,10.71456 -22.1326,22.72369 l -4.1377,59.30472 -116.5198,8.31273 -7.9256,-53.74763 c -1.7649,-11.95502 -12.2048,-20.96707 -24.2888,-20.96707 h -158.9618 c -12.0799,0 -22.51974,9.01205 -24.28469,20.96707 l -7.92977,53.74763 -116.51981,-8.31273 -4.13764,-59.30472 c -0.84084,-12.0133 -10.14844,-21.57065 -22.1326,-22.72786 L 105.63089,668.93315 c -0.7784,-0.0749 -1.34868,8.23365 -2.12709,8.23365 l -0.20397,16.59324 150.29494,16.83931 5.16426,63.4087 c 0.84501,12.11319 0.512,12.6502 12.63353,13.52019 l 138.33484,8.85989 c 8.63132,-3.98481 8.46492,-4.12286 11.40932,-12.11805 l 10.5516,-57.70151 158.6784,-2.09438 11.7749,69.83954 c 2.2625,5.789 2.4708,5.74207 10.726,6.64547 l 137.8455,-12.27375 c 12.1174,-0.86999 11.8112,-0.74575 13.3175,-10.21392 l 8.96915,-69.4216 146.69835,-15.25748 z"
       fill="#fff"
       id="path1-8"
       style="fill:#ffffff;fill-opacity:1;stroke-width:4.16261"
       sodipodi:nodetypes="cccccccsscccccccccccccccccccccc"
       inkscape:label="upper" />
    <path
       d="m 0,0 c 0,-12.052 -9.765,-21.815 -21.813,-21.815 -12.042,0 -21.81,9.763 -21.81,21.815 0,12.044 9.768,21.802 21.81,21.802 C -9.765,21.802 0,12.044 0,0"
       fill="#ffffff"
       transform="matrix(4.162611,0,0,-4.162611,389.21484,527.15132)"
       id="path4" />
    <path
       d="m 0,0 c 0,-7.994 -6.479,-14.473 -14.479,-14.473 -7.996,0 -14.479,6.479 -14.479,14.473 0,7.994 6.483,14.479 14.479,14.479 C -6.479,14.479 0,7.994 0,0"
       fill="#414042"
       transform="matrix(4.162611,0,0,-4.162611,367.36686,532.53707)"
       id="path5" />
    <path
       d="m 0,0 c -3.878,0 -7.021,2.858 -7.021,6.381 v 20.081 c 0,3.52 3.143,6.381 7.021,6.381 3.878,0 7.028,-2.861 7.028,-6.381 V 6.381 C 7.028,2.858 3.878,0 0,0"
       fill="#ffffff"
       transform="matrix(4.162611,0,0,-4.162611,511.99336,626.21982)"
       id="path6" />
    <path
       d="m 0,0 c 0,-12.052 9.765,-21.815 21.815,-21.815 12.041,0 21.808,9.763 21.808,21.815 0,12.044 -9.767,21.802 -21.808,21.802 C 9.765,21.802 0,12.044 0,0"
       fill="#ffffff"
       transform="matrix(4.162611,0,0,-4.162611,634.78706,527.15132)"
       id="path7" />
    <path
       d="m 0,0 c 0,-7.994 6.477,-14.473 14.471,-14.473 8.002,0 14.479,6.479 14.479,14.473 0,7.994 -6.477,14.479 -14.479,14.479 C 6.477,14.479 0,7.994 0,0"
       fill="#414042"
       transform="matrix(4.162611,0,0,-4.162611,656.64056,532.53707)"
       id="path8" />
  </g>
</svg>
